<?xml version="1.0" ?><!DOCTYPE svg  PUBLIC '-//W3C//DTD SVG 1.1//EN'  'http://www.w3.org/Graphics/SVG/1.1/DTD/svg11.dtd'><svg xmlns="http://www.w3.org/2000/svg" xmlns:xlink="http://www.w3.org/1999/xlink" xml:space="preserve" width="2.83333in" height="2.83333in" version="1.1" style="shape-rendering:geometricPrecision; text-rendering:geometricPrecision; image-rendering:optimizeQuality; fill-rule:evenodd; clip-rule:evenodd" viewBox="0 0 2833 2833"><defs><style type="text/css">
   <![CDATA[
    .fil0 {fill:#061420}
    .fil1 {fill:#FFD80D}
    .fil2 {fill:white}
   ]]>
  </style></defs><g id="Layer_x0020_1"><circle class="fil0" cx="1417" cy="1417" r="1417"/><g id="_356233408"><path class="fil1" d="M764 1967l0 -1384c0,-11 9,-20 20,-20l1265 0c11,0 20,9 20,20l0 1295c-6,-2 -13,-3 -20,-3l-1107 0c-73,0 -138,36 -178,92zm862 -145l-419 0c-26,0 -26,-40 0,-40l419 0c26,0 26,40 0,40zm-72 -125l-275 0c-26,0 -26,-40 0,-40l275 0c26,0 26,40 0,40zm76 -136l-426 0c-11,0 -20,-9 -20,-20l0 -161c-69,1 -128,-53 -128,-125 0,-37 16,-72 44,-95 -36,-100 -23,-212 37,-302 133,-200 427,-200 559,0 60,90 74,202 37,302 38,31 54,81 39,130 -16,56 -64,91 -122,90l0 161c0,11 -9,20 -20,20zm-406 -40l386 0 0 -149c-21,-7 -40,-21 -54,-39 -11,-13 -1,-32 15,-32 6,0 12,2 16,7 41,51 127,41 147,-29 8,-28 4,-70 -36,-95 -8,-5 -11,-16 -8,-25 39,-91 28,-196 -27,-279 -117,-176 -375,-176 -493,0 -55,83 -65,188 -27,279 4,9 1,19 -8,25 -58,37 -51,127 17,151 35,12 71,2 94,-27 8,-9 21,-10 30,-1 0,1 13,11 2,26 -15,19 -34,32 -54,39l0 149zm114 -30c-11,0 -20,-9 -20,-20l0 -25 -50 0c-26,0 -26,-40 0,-40l50 0 0 -25c0,-26 40,-26 40,0l0 25 39 0 0 -25c0,-26 40,-26 40,0l0 25 39 0 0 -25c0,-26 40,-26 40,0l0 25 49 0c27,0 27,40 0,40l-49 0 0 25c0,11 -9,20 -20,20 -11,0 -20,-9 -20,-20l0 -25 -39 0 0 25c0,11 -9,20 -20,20 -11,0 -20,-9 -20,-20l0 -25 -39 0 0 25c0,11 -9,20 -20,20zm-48 -295c-53,0 -97,-43 -97,-97 0,-53 44,-97 97,-97 54,0 97,44 97,97 0,54 -43,97 -97,97zm0 -154c-31,0 -57,26 -57,57 0,32 26,57 57,57 32,0 57,-25 57,-57 0,-31 -25,-57 -57,-57zm253 154c-53,0 -97,-43 -97,-97 0,-53 44,-97 97,-97 54,0 97,44 97,97 0,54 -43,97 -97,97zm0 -154c-31,0 -57,26 -57,57 0,32 26,57 57,57 32,0 57,-25 57,-57 0,-31 -25,-57 -57,-57zm-55 266l-143 0c-15,0 -25,-17 -17,-30l72 -119c7,-13 26,-13 34,0l71 118c9,15 -2,31 -17,31zm-107 -40l72 0 -36 -60 -36 60z"/><path class="fil2" d="M2049 2270l-1107 0c-98,0 -178,-80 -178,-178 0,-97 80,-177 178,-177l1107 0c11,0 20,9 20,20l0 137 -725 0c-26,0 -26,40 0,40l725 0 0 138c0,11 -9,20 -20,20z"/></g></g></svg>