<?xml version="1.0" ?><!DOCTYPE svg  PUBLIC '-//W3C//DTD SVG 1.1//EN'  'http://www.w3.org/Graphics/SVG/1.1/DTD/svg11.dtd'><svg xmlns="http://www.w3.org/2000/svg" xmlns:xlink="http://www.w3.org/1999/xlink" xml:space="preserve" width="2.83333in" height="2.83333in" version="1.1" style="shape-rendering:geometricPrecision; text-rendering:geometricPrecision; image-rendering:optimizeQuality; fill-rule:evenodd; clip-rule:evenodd" viewBox="0 0 2833 2833"><defs><style type="text/css">
   <![CDATA[
    .fil0 {fill:#061420}
    .fil1 {fill:#FFD80D}
    .fil2 {fill:white}
   ]]>
  </style></defs><g id="Layer_x0020_1"><circle class="fil0" cx="1417" cy="1417" r="1417"/><g id="_356228416"><path class="fil1" d="M1690 2270l-1031 0c-48,0 -87,-39 -87,-87l0 -1533c0,-48 39,-87 87,-87l1031 0c48,0 87,39 87,87l0 1533c0,48 -39,87 -87,87zm-73 -1416l-481 0c-26,0 -26,-40 0,-40l481 0c26,0 26,40 0,40zm-803 1135c-5,0 -11,-2 -14,-6l-22 -22c-19,-19 9,-47 28,-28l8 8 38 -38c18,-19 47,9 28,28l-52 52c-4,4 -9,6 -14,6zm104 70l-179 0c-14,0 -26,-12 -26,-27l0 -179c0,-14 12,-26 26,-26l179 0c15,0 27,12 27,26l0 179c0,15 -12,27 -27,27zm-165 -40l152 0 0 -152 -152 0 0 152zm864 1l-481 0c-26,0 -26,-40 0,-40l481 0c26,0 26,40 0,40zm0 -114l-481 0c-26,0 -26,-40 0,-40l481 0c26,0 26,40 0,40zm-803 -268c-6,0 -11,-2 -14,-6l-22 -22c-19,-18 9,-47 28,-28l8 8 38 -38c18,-19 47,9 28,28l-52 52c-4,4 -9,6 -14,6zm104 70l-179 0c-14,0 -26,-12 -26,-27l0 -178c0,-15 12,-27 26,-27l179 0c15,0 27,12 27,27l0 178c0,15 -12,27 -27,27zm-165 -40l152 0 0 -152 -152 0 0 152zm864 1l-481 0c-26,0 -26,-40 0,-40l481 0c26,0 26,40 0,40zm0 -114l-481 0c-26,0 -26,-40 0,-40l481 0c26,0 26,40 0,40zm-803 -268c-6,0 -11,-2 -14,-5l-22 -22c-19,-19 9,-47 28,-29l8 8 38 -38c18,-19 47,10 28,28l-52 53c-4,3 -9,5 -14,5zm104 70l-179 0c-14,0 -26,-12 -26,-26l0 -179c0,-15 12,-27 26,-27l179 0c15,0 27,12 27,27l0 179c0,14 -12,26 -27,26zm-165 -40l152 0 0 -152 -152 0 0 152zm864 1l-481 0c-26,0 -26,-40 0,-40l481 0c26,0 26,40 0,40zm0 -113l-481 0c-26,0 -26,-40 0,-40l481 0c26,0 26,40 0,40zm-803 -268c-5,0 -11,-2 -14,-6l-22 -22c-19,-19 9,-47 28,-28l8 7 38 -38c18,-18 47,10 28,29l-52 52c-4,4 -9,6 -14,6zm104 70l-179 0c-14,0 -26,-12 -26,-27l0 -179c0,-14 12,-26 26,-26l179 0c15,0 27,12 27,26l0 179c0,15 -12,27 -27,27zm-165 -40l152 0 0 -152 -152 0 0 152zm864 0l-481 0c-26,0 -26,-40 0,-40l481 0c26,0 26,40 0,40z"/><path class="fil2" d="M2241 2005l-128 0c11,0 20,-9 20,-20l0 -1034 128 0 0 1034c0,11 -9,20 -20,20zm-148 -1054l0 1034c0,11 9,20 20,20l-128 0c-11,0 -20,-9 -20,-20l0 -1034 128 0zm-122 -40l124 -334c7,-17 31,-17 38,0l122 334 -284 0z"/><path class="fil2" d="M2113 2269c-82,0 -148,-66 -148,-148l0 -80c6,3 13,4 20,4l256 0c7,0 14,-1 20,-4l0 80c0,82 -66,148 -148,148z"/></g></g></svg>