<?xml version="1.0" ?><!DOCTYPE svg  PUBLIC '-//W3C//DTD SVG 1.1//EN'  'http://www.w3.org/Graphics/SVG/1.1/DTD/svg11.dtd'><svg xmlns="http://www.w3.org/2000/svg" xmlns:xlink="http://www.w3.org/1999/xlink" xml:space="preserve" width="2.83333in" height="2.83333in" version="1.1" style="shape-rendering:geometricPrecision; text-rendering:geometricPrecision; image-rendering:optimizeQuality; fill-rule:evenodd; clip-rule:evenodd" viewBox="0 0 2833 2833"><defs><style type="text/css">
   <![CDATA[
    .fil0 {fill:#061420}
    .fil1 {fill:#FFD80D}
    .fil2 {fill:white}
   ]]>
  </style></defs><g id="Layer_x0020_1"><circle class="fil0" cx="1417" cy="1417" r="1417"/><g id="_424984400"><path class="fil1" d="M1417 2083c-40,0 -77,-25 -110,-72 -7,-10 -4,-23 6,-29 28,-17 16,-60 -16,-60 -13,0 -17,8 -29,3 -5,-2 -9,-6 -11,-12 -99,-254 -101,-695 -12,-959 44,-131 105,-203 172,-203 67,0 128,72 171,203 86,256 86,669 0,926 -43,131 -104,203 -171,203zm-67 -81c18,21 41,41 67,41 47,0 96,-64 134,-176 83,-248 83,-652 0,-901 -38,-111 -87,-175 -134,-175 -48,0 -97,64 -134,175 -85,252 -84,669 5,916 66,-7 107,71 62,120z"/><path class="fil1" d="M1417 1653c-175,0 -339,-23 -463,-65 -131,-43 -203,-104 -203,-171 0,-67 72,-128 203,-172 124,-42 288,-64 463,-64 308,0 573,72 645,175 8,11 3,26 -10,30 -29,10 -29,51 0,61 13,4 18,20 10,31 -72,103 -337,175 -645,175zm0 -432c-171,0 -331,22 -451,62 -111,37 -175,86 -175,134 0,47 64,96 175,134 235,78 603,81 850,15 93,-25 163,-58 199,-95 -33,-29 -33,-80 0,-109 -36,-36 -106,-69 -199,-95 -113,-30 -254,-46 -399,-46z"/><path class="fil1" d="M1801 1918c-129,0 -351,-134 -551,-334 -126,-126 -227,-260 -285,-378 -5,-10 0,-23 10,-27 32,-14 22,-62 -13,-62 -10,0 -16,6 -26,0 -5,-2 -9,-7 -10,-12 -33,-120 11,-190 106,-190 130,0 351,134 552,335 123,123 223,256 282,373 61,123 69,217 22,265 -21,20 -50,30 -87,30zm-792 -714c57,110 152,235 269,351 190,191 405,323 523,323 26,0 46,-6 58,-19 34,-33 23,-113 -29,-218 -57,-114 -154,-242 -275,-363 -190,-190 -405,-323 -523,-323 -76,0 -86,56 -72,122 68,-2 100,83 49,127z"/><path class="fil1" d="M1032 1918c-37,0 -66,-10 -86,-30 -48,-48 -40,-142 22,-265 58,-117 158,-250 282,-373 158,-158 331,-278 462,-319 11,-4 23,3 25,14 9,37 65,31 64,-9 0,-12 10,-21 23,-20 26,4 47,14 64,30 47,47 39,141 -22,265 -59,117 -159,249 -282,373 -201,200 -422,334 -552,334zm675 -943c-124,44 -282,156 -429,303 -121,121 -218,249 -274,363 -53,105 -64,185 -30,218 13,13 32,19 58,19 118,0 333,-132 523,-323 121,-120 218,-249 275,-362 52,-105 63,-185 29,-219 -6,-6 -13,-10 -22,-14 -19,59 -99,67 -130,15z"/><path class="fil1" d="M1297 2026c-40,0 -73,-32 -73,-72 0,-40 33,-72 73,-72 40,0 72,32 72,72 0,40 -32,72 -72,72zm472 -1016c-40,0 -72,-33 -72,-72 0,-40 32,-73 72,-73 40,0 72,33 72,73 0,39 -32,72 -72,72zm-807 211c-40,0 -72,-32 -72,-72 0,-40 32,-72 72,-72 40,0 72,32 72,72 0,40 -32,72 -72,72zm455 304c-60,0 -108,-49 -108,-108 0,-60 48,-108 108,-108 59,0 108,48 108,108 0,59 -49,108 -108,108zm646 -36c-40,0 -73,-33 -73,-72 0,-40 33,-73 73,-73 39,0 72,33 72,73 0,39 -33,72 -72,72z"/><path class="fil2" d="M871 2083l-288 0c-26,0 -26,-40 0,-40l288 0c26,0 26,40 0,40z"/><path class="fil2" d="M816 1964l-233 0c-26,0 -26,-40 0,-40l233 0c26,0 26,40 0,40z"/><path class="fil2" d="M758 1845l-175 0c-26,0 -26,-40 0,-40l175 0c26,0 26,40 0,40z"/><path class="fil2" d="M2250 2083l-287 0c-27,0 -27,-40 0,-40l287 0c26,0 26,40 0,40z"/><path class="fil2" d="M2250 1964l-233 0c-26,0 -26,-40 0,-40l233 0c26,0 26,40 0,40z"/><path class="fil2" d="M2250 1845l-175 0c-26,0 -26,-40 0,-40l175 0c26,0 26,40 0,40z"/></g></g></svg>